<svg version="1.2" baseProfile="tiny-ps" xmlns="http://www.w3.org/2000/svg" viewBox="0 0 467 315" width="467" height="315">
	<title>&lt;Group&gt;</title>
	<style>
		tspan { white-space:pre }
		.shp0 { fill: #ffffff } 
	</style>
	<g id="&lt;Group&gt;">
		<g id="&lt;Group&gt;">
			<path id="&lt;Path&gt;" class="shp0" d="M23.13 286.14L41.33 36.55L21.1 56.05L1 309.73C85.87 288.07 163.58 289.58 234.13 314.25C165.89 269.23 95.55 259.86 23.13 286.14Z" />
			<g id="&lt;Group&gt;">
				<path id="&lt;Path&gt;" class="shp0" d="M445.36 287.94L429.29 38.2L449.35 57.88L467.28 311.72C382.6 289.34 304.88 290.18 234.13 314.25C302.75 269.81 373.16 261.04 445.36 287.94Z" />
				<path id="&lt;Path&gt;" class="shp0" d="M417.7 26.52L417.41 21.9C356.03 -8.27 295.34 -6.04 235.35 28.61C175.65 -6.55 114.99 -9.3 53.35 20.35L53.02 24.96L34.81 274.55C107.24 248.27 173.7 256.45 234.19 299.09C295.05 256.97 361.58 249.36 433.77 276.26L417.7 26.52Z" />
			</g>
		</g>
	</g>
</svg>