<svg version="1.2" baseProfile="tiny-ps" xmlns="http://www.w3.org/2000/svg" viewBox="0 0 385 385" width="385" height="385">
	<title>menu-svgrepo-com-svg</title>
	<style>
		tspan { white-space:pre }
		.shp0 { fill: #ffffff } 
	</style>
	<g id="Layer">
		<g id="Menu">
			<path id="Layer" class="shp0" d="M9.02 84.06L279.7 84.06C284.68 84.06 288.73 78.67 288.73 72.03C288.73 65.39 284.68 60 279.7 60L9.02 60C4.04 60 0 65.39 0 72.03C0 78.67 4.04 84.06 9.02 84.06Z" />
			<path id="Layer" class="shp0" d="M186.47 180L6.01 180C2.69 180 0 185.39 0 192.03C0 198.67 2.69 204.06 6.01 204.06L186.47 204.06C189.79 204.06 192.48 198.67 192.48 192.03C192.48 185.39 189.79 180 186.47 180Z" />
			<path id="Layer" class="shp0" d="M372.94 300.76L12.03 300.76C5.39 300.76 0 306.15 0 312.79C0 319.43 5.39 324.82 12.03 324.82L372.94 324.82C379.58 324.82 384.97 319.43 384.97 312.79C384.97 306.15 379.58 300.76 372.94 300.76Z" />
		</g>
		<g id="Layer">
		</g>
		<g id="Layer">
		</g>
		<g id="Layer">
		</g>
		<g id="Layer">
		</g>
		<g id="Layer">
		</g>
		<g id="Layer">
		</g>
	</g>
	<g id="Layer">
	</g>
	<g id="Layer">
	</g>
	<g id="Layer">
	</g>
	<g id="Layer">
	</g>
	<g id="Layer">
	</g>
	<g id="Layer">
	</g>
	<g id="Layer">
	</g>
	<g id="Layer">
	</g>
	<g id="Layer">
	</g>
	<g id="Layer">
	</g>
	<g id="Layer">
	</g>
	<g id="Layer">
	</g>
	<g id="Layer">
	</g>
	<g id="Layer">
	</g>
	<g id="Layer">
	</g>
</svg>