<svg version="1.2" baseProfile="tiny-ps" xmlns="http://www.w3.org/2000/svg" viewBox="0 0 467 929" width="467" height="929">
	<title>OBJECTS</title>
	<style>
		tspan { white-space:pre }
		.shp0 { fill: #6e80e7 } 
		.shp1 { fill: #58595b } 
		.shp2 { fill: #000000 } 
		.shp3 { fill: #231f20 } 
		.shp4 { fill: #ffffff } 
		.txt5 { font-size: 5px;fill: #ffffff;font-weight: 400;font-family: "Montserrat-Regular", "Montserrat" } 
		.shp6 { opacity: 0.4;mix-blend-mode: multiply;fill: #6e80e7 } 
		.txt7 { font-size: 13px;fill: #ffffff;font-weight: 400;font-family: "Montserrat-Regular", "Montserrat" } 
		.txt8 { font-size: 28px;fill: #ffffff;font-weight: 400;font-family: "Montserrat-Regular", "Montserrat" } 
	</style>
	<g id="OBJECTS">
		<g id="&lt;Group&gt;">
			<g id="&lt;Group&gt;">
				<g id="&lt;Group&gt;">
					<g id="&lt;Group&gt;">
						<g id="&lt;Group&gt;">
							<g id="&lt;Group&gt;">
								<g id="&lt;Group&gt;">
									<g id="&lt;Group&gt;">
										<path id="&lt;Path&gt;" class="shp0" d="M32.85 569.84L31.62 857.72C31.53 880.26 48.81 897.6 71.36 897.7L264.35 898.52L264.35 898.52L392.85 899.07C415.4 899.17 434.36 881.98 434.46 859.44L437.09 244.11L437.84 67.8C437.94 45.26 419.13 26.55 396.58 26.46L359.76 26.3C351.9 26.27 349 26.06 348.48 36.01C347.94 46.36 340.81 52.46 331.18 55.43C327.92 56.44 324.29 55.84 320.82 55.82L313.8 55.79L157.95 55.13L150.93 55.1C147.47 55.08 143.84 55.4 140.58 54.37C130.98 51.31 123.9 45.65 123.45 35.3C123.01 25.35 120.11 25.28 112.25 25.24L75.09 25.08C52.54 24.99 35.1 43.54 35 66.08L34.13 269.7L32.85 569.84" />
										<g id="&lt;Group&gt;">
											<path id="&lt;Compound Path&gt;" fill-rule="evenodd" class="shp1" d="M458.98 861.77C458.82 898.92 428.57 928.91 391.4 928.76L70.21 927.38C33.04 927.23 3.05 896.98 3.21 859.82L6.59 67.54C6.75 30.38 37 0.39 74.17 0.55L395.36 1.92C432.53 2.08 462.52 32.33 462.37 69.49L458.98 861.77ZM452.04 68.8C452.17 36.99 426.49 11.09 394.68 10.96L73.48 9.59C41.67 9.45 15.77 35.12 15.63 66.93L12.25 859.22C12.11 891.02 37.79 916.92 69.61 917.05L390.8 918.43C422.62 918.56 448.52 892.89 448.65 861.08L452.04 68.8Z" />
											<path id="&lt;Path&gt;" class="shp2" d="M6.36 122.61L5.74 122.61C3.35 122.6 1.4 124.53 1.39 126.92L1.27 153.32C1.26 155.71 3.2 157.66 5.59 157.67L6.21 157.68" />
											<path id="&lt;Path&gt;" class="shp2" d="M461.29 320.93C464.02 320.94 466.25 318.73 466.26 316L466.68 218C466.69 215.27 464.49 213.04 461.75 213.03" />
											<g id="&lt;Group&gt;">
												<path id="&lt;Path&gt;" class="shp2" d="M6.07 190.11C3.33 190.1 1.11 192.3 1.1 195.04L0.86 250.76C0.85 253.49 3.05 255.72 5.79 255.73" />
												<path id="&lt;Path&gt;" class="shp2" d="M5.71 274.34C2.97 274.33 0.75 276.53 0.74 279.26L0.5 334.99C0.49 337.72 2.69 339.94 5.43 339.96" />
											</g>
											<path id="&lt;Compound Path&gt;" fill-rule="evenodd" class="shp3" d="M448.65 861.08C448.52 892.89 422.62 918.56 390.8 918.43L69.61 917.05C37.79 916.92 12.11 891.02 12.25 859.22L15.63 66.93C15.77 35.12 41.67 9.45 73.48 9.59L394.68 10.96C426.49 11.09 452.17 36.99 452.04 68.8L448.65 861.08ZM437.84 67.8C437.94 45.26 419.12 26.55 396.58 26.46L359.76 26.3C351.9 26.27 348.99 26.06 348.48 36.01C347.94 46.36 340.81 52.46 331.18 55.43C327.91 56.44 324.28 55.84 320.82 55.82L313.8 55.79L157.95 55.13L150.93 55.1C147.47 55.08 143.84 55.4 140.58 54.37C130.98 51.31 123.89 45.65 123.45 35.3C123.01 25.35 120.11 25.28 112.25 25.24L75.08 25.08C52.54 24.99 35.1 43.54 35 66.08L31.62 857.72C31.52 880.26 48.81 897.6 71.35 897.7L392.85 899.07C415.4 899.17 434.36 881.98 434.46 859.44L437.84 67.8ZM207.16 32.75C207.15 34.65 208.88 35.98 211.02 35.99L261.37 36.21C263.51 36.21 265.25 34.9 265.26 33C265.27 31.09 263.54 29.76 261.4 29.75L211.04 29.54C208.9 29.53 207.16 30.85 207.16 32.75ZM282.23 27.45C279.11 27.44 276.57 29.96 276.55 33.08C276.54 36.2 279.06 38.74 282.18 38.75C285.3 38.76 287.84 36.25 287.85 33.13C287.87 30.01 285.35 27.47 282.23 27.45Z" />
											<path id="&lt;Path&gt;" class="shp4" d="M276.55 33.08C276.54 36.2 279.06 38.74 282.18 38.75C285.3 38.76 287.84 36.25 287.85 33.13C287.87 30.01 285.35 27.47 282.23 27.45C279.11 27.44 276.57 29.96 276.55 33.08Z" />
											<path id="&lt;Path&gt;" class="shp4" d="M211.02 35.99L261.37 36.21C263.51 36.21 265.25 34.9 265.26 33C265.27 31.09 263.54 29.76 261.4 29.75L211.04 29.54C208.9 29.53 207.16 30.85 207.16 32.75C207.15 34.65 208.88 35.98 211.02 35.99Z" />
										</g>
									</g>
								</g>
								<g id="&lt;Group&gt;">
									<path id="&lt;Path&gt;" class="shp4" d="M392.2 49.43L395.27 49.44L395.3 42.44L392.23 42.43L392.2 49.43Z" />
									<path id="&lt;Path&gt;" class="shp4" d="M396.15 49.45L399.23 49.46L399.26 42.46L396.18 42.44L396.15 49.45Z" />
									<path id="&lt;Path&gt;" class="shp4" d="M400.11 49.46L403.19 49.48L403.22 42.47L400.14 42.46L400.11 49.46Z" />
									<path id="&lt;Path&gt;" class="shp4" d="M404.07 49.48L407.15 49.49L407.18 42.49L404.1 42.48L404.07 49.48Z" />
									<path id="&lt;Path&gt;" class="shp4" d="M408.06 43.87L408.04 48.12L409.58 48.13L409.6 43.88L408.06 43.87Z" />
								</g>
								<g id="&lt;Group&gt;">
									<path id="&lt;Path&gt;" class="shp4" d="M373.45 48.33C372.63 48.33 371.97 48.99 371.96 49.81C371.96 50.63 372.62 51.29 373.44 51.29C374.25 51.3 374.92 50.64 374.92 49.82C374.93 49 374.27 48.34 373.45 48.33Z" />
									<path id="&lt;Path&gt;" class="shp4" d="M377.31 45.52C376.22 44.75 374.9 44.29 373.47 44.29C372.04 44.28 370.71 44.72 369.61 45.49C369.1 45.84 369.05 46.57 369.49 47.01C369.83 47.36 370.36 47.41 370.76 47.14C371.53 46.61 372.46 46.3 373.46 46.3C374.46 46.3 375.39 46.62 376.15 47.16C376.54 47.44 377.08 47.39 377.42 47.05C377.86 46.61 377.81 45.88 377.31 45.52Z" />
									<path id="&lt;Path&gt;" class="shp4" d="M380.1 42.8C378.3 41.33 375.99 40.44 373.48 40.43C370.97 40.42 368.66 41.29 366.84 42.75C366.37 43.12 366.32 43.82 366.74 44.25C367.11 44.62 367.7 44.64 368.11 44.31C369.58 43.13 371.45 42.43 373.47 42.44C375.5 42.45 377.36 43.17 378.82 44.36C379.23 44.69 379.81 44.67 380.19 44.31C380.61 43.88 380.57 43.18 380.1 42.8Z" />
								</g>
								<text id="08.00
" style="transform: matrix(2.7,0.012,-0.012,2.699,60.228,48.016)" >
									<tspan x="0" y="0" class="txt5">08.00
</tspan>
								</text>
								<path id="&lt;Path&gt;" class="shp6" d="M293.76 881.99L174.14 881.48C170.62 881.46 167.74 878.57 167.76 875.05C167.77 871.52 170.67 868.65 174.2 868.67L293.81 869.18C297.34 869.19 300.21 872.09 300.19 875.61C300.18 879.13 297.28 882.01 293.76 881.99Z" />
							</g>
						</g>
					</g>
					<text id="Welcome
" style="transform: matrix(2.7,0.012,-0.012,2.699,236.203,118.39)" >
						<tspan x="-31.312" y="0" class="txt7">Welcome
</tspan>
					</text>
				</g>
				<g id="&lt;Group&gt;">
					<g id="&lt;Group&gt;">
						<g id="&lt;Group&gt;">
							<path id="&lt;Path&gt;" class="shp4" d="M70.66 100.79C70.41 100.79 70.17 100.7 69.97 100.52L59.67 90.99C59.48 90.81 59.36 90.55 59.35 90.29C59.34 90.02 59.44 89.76 59.62 89.56L69.15 79.26C69.54 78.85 70.18 78.83 70.59 79.2C70.99 79.58 71.02 80.23 70.64 80.64L61.79 90.19L71.35 99.03C71.76 99.41 71.79 100.05 71.41 100.46C71.21 100.68 70.93 100.79 70.66 100.79Z" />
						</g>
					</g>
					<g id="&lt;Group&gt;">
						<path id="&lt;Path&gt;" class="shp4" d="M412.62 78.66C412.62 80.24 411.33 81.51 409.76 81.5C408.18 81.5 406.91 80.22 406.92 78.64C406.92 77.07 408.21 75.79 409.78 75.8C411.36 75.81 412.63 77.09 412.62 78.66Z" />
					</g>
					<g id="&lt;Group&gt;">
						<path id="&lt;Path&gt;" class="shp4" d="M412.57 90.76C412.56 92.34 411.28 93.61 409.71 93.6C408.13 93.6 406.86 92.32 406.87 90.74C406.87 89.16 408.15 87.89 409.73 87.9C411.31 87.91 412.58 89.19 412.57 90.76Z" />
					</g>
					<g id="&lt;Group&gt;">
						<path id="&lt;Path&gt;" class="shp4" d="M412.52 102.86C412.51 104.44 411.23 105.71 409.65 105.7C408.08 105.7 406.81 104.41 406.81 102.84C406.82 101.26 408.1 99.99 409.68 100C411.25 100.01 412.53 101.29 412.52 102.86Z" />
					</g>
				</g>
				<g id="&lt;Group&gt;" style="mix-blend-mode: screen">
					<g id="&lt;Group&gt;">
					</g>
				</g>
				<g id="&lt;Group&gt;">
					<g id="&lt;Group&gt;">
						<g id="&lt;Group&gt;">
							<path id="&lt;Path&gt;" class="shp4" d="M147.83 432.79L155.11 332.95L147.02 340.75L138.98 442.22C172.93 433.56 204.01 434.16 232.23 444.03C204.93 426.02 176.8 422.27 147.83 432.79Z" />
							<g id="&lt;Group&gt;">
								<path id="&lt;Path&gt;" class="shp4" d="M316.72 433.51L310.29 333.61L318.32 341.48L325.49 443.02C291.62 434.07 260.53 434.4 232.23 444.03C259.68 426.26 287.84 422.75 316.72 433.51Z" />
								<path id="&lt;Path&gt;" class="shp4" d="M305.66 328.94L305.54 327.09C280.99 315.02 256.71 315.92 232.72 329.77C208.84 315.71 184.57 314.61 159.92 326.47L159.78 328.32L152.5 428.15C181.47 417.64 208.06 420.91 232.25 437.97C256.6 421.12 283.21 418.08 312.09 428.84L305.66 328.94Z" />
							</g>
						</g>
					</g>
					<text id="Gradesy " style="transform: matrix(1.35,0.006,-0.006,1.35,161.455,471.26)" >
						<tspan x="0" y="19.6" class="txt8">G</tspan><tspan  y="19.6" class="txt8">r</tspan><tspan  y="19.6" class="txt8">a</tspan><tspan  y="19.6" class="txt8">d</tspan><tspan  y="19.6" class="txt8">e</tspan><tspan  y="19.6" class="txt8">s</tspan><tspan  y="19.6" class="txt8">y</tspan><tspan  y="19.6" class="txt8">
</tspan>
					</text>
				</g>
			</g>
		</g>
	</g>
</svg>